<?xml version="1.0" standalone="no"?>
<!DOCTYPE svg PUBLIC "-//W3C//DTD SVG 20010904//EN"
 "http://www.w3.org/TR/2001/REC-SVG-20010904/DTD/svg10.dtd">
<svg version="1.0" xmlns="http://www.w3.org/2000/svg"
 width="512.000000pt" height="512.000000pt" viewBox="0 0 512.000000 512.000000"
 preserveAspectRatio="xMidYMid meet">

<g transform="translate(0.000000,512.000000) scale(0.100000,-0.100000)"
fill="#000000" stroke="none">
<path d="M1745 4191 c-74 -22 -135 -52 -200 -101 -29 -22 -254 -274 -540 -608
-536 -624 -559 -656 -591 -812 -28 -131 -2 -278 68 -402 45 -79 999 -1191
1063 -1238 28 -21 74 -50 102 -64 116 -58 63 -56 1489 -56 1433 0 1349 -3
1468 57 64 32 157 125 189 189 60 119 57 41 57 1404 0 1363 3 1285 -57 1404
-32 64 -125 157 -189 189 -119 60 -34 57 -1478 56 -1227 0 -1325 -2 -1381 -18z
m2701 -317 c19 -9 44 -31 57 -48 l22 -31 0 -1235 0 -1235 -22 -31 c-49 -68 46
-64 -1371 -64 -941 0 -1288 3 -1313 12 -19 6 -50 22 -69 36 -49 35 -970 1110
-1000 1169 -34 64 -35 158 -3 223 27 54 959 1144 1006 1175 17 12 46 27 62 33
21 7 426 11 1313 11 1165 1 1287 -1 1318 -15z"/>
<path d="M2273 3330 c-37 -22 -60 -54 -73 -101 -23 -78 -19 -83 288 -391 l287
-288 -282 -282 c-243 -245 -283 -289 -293 -325 -30 -114 70 -220 187 -199 33
7 74 44 326 294 l287 287 283 -282 c155 -155 295 -287 310 -293 42 -15 76 -12
123 11 56 27 86 75 86 138 0 26 -5 59 -12 72 -7 13 -136 149 -288 302 l-277
277 282 283 c301 302 311 314 293 392 -18 79 -74 125 -153 125 -27 0 -58 -5
-70 -11 -12 -6 -147 -135 -299 -287 l-278 -277 -277 277 c-153 152 -291 282
-306 287 -44 17 -109 13 -144 -9z"/>
</g>
</svg>
