<?xml version="1.0" standalone="no"?>
<!DOCTYPE svg PUBLIC "-//W3C//DTD SVG 20010904//EN"
 "http://www.w3.org/TR/2001/REC-SVG-20010904/DTD/svg10.dtd">
<svg version="1.0" xmlns="http://www.w3.org/2000/svg"
 width="512.000000pt" height="512.000000pt" viewBox="0 0 512.000000 512.000000"
 preserveAspectRatio="xMidYMid meet">

<g transform="translate(0.000000,512.000000) scale(0.100000,-0.100000)"
fill="#727272" stroke="none">
<path d="M2480 4828 c-18 -13 -43 -36 -54 -51 -21 -28 -21 -34 -24 -828 l-2
-799 -998 0 -998 0 -44 -22 c-25 -13 -55 -38 -68 -57 l-22 -34 2 -1336 3
-1336 22 -31 c50 -70 -146 -64 2275 -62 l2183 3 31 22 c69 50 64 -143 64 2263
0 2406 5 2213 -64 2263 l-31 22 -1121 3 -1121 2 -33 -22z m2050 -2268 l0
-1970 -1970 0 -1970 0 0 1120 0 1120 1009 0 1008 0 33 23 c18 12 43 35 54 50
21 28 21 34 24 828 l2 799 905 0 905 0 0 -1970z"/>
<path d="M3560 2808 c-25 -13 -55 -38 -67 -57 -23 -34 -23 -35 -23 -457 l0
-424 -632 0 -633 0 82 83 c97 99 117 134 110 195 -9 81 -77 142 -156 142 -25
-1 -56 -6 -68 -13 -12 -7 -130 -120 -263 -251 -257 -256 -270 -273 -256 -353
6 -33 40 -70 259 -290 272 -272 276 -275 364 -258 49 9 109 69 118 118 14 76
0 104 -103 209 l-96 98 741 0 740 0 33 23 c19 12 43 38 54 57 20 34 21 52 24
525 2 270 0 509 -3 533 -11 74 -90 142 -165 142 -9 0 -36 -10 -60 -22z"/>
</g>
</svg>
